# xmcd
#
# Track frame offsets:
#	150
#	12437
#	27955
#	40420
#	53695
#	73515
#	90705
#	103032
#	123425
#	141562
#	158090
#	171575
#	185310
#	201190
#	216300
#	227345
#	246647
#	264575
#	278842
#	292192
#	306067
#
# Disc length: 4289 seconds
# Revision: 0
# Processed by: cddbd v1.5.2PL0 Copyright (c) Steve Scherf et al.
# Submitted via: dBpowerAMP V12.0
#
DISCID=4110bf15
DTITLE=Various Artist - TM Century GoldDisc 1034N
DYEAR=1981
DGENRE=Country
TTITLE0=Anne Murray - Blessed Are The Believers
TTITLE1=Alabama - Forty Hour Week (For A Livin')
TTITLE2=Larry Gatlin and The Gatlin Brothers Band - Take Me To Your Lovin' Place
TTITLE3=Eddie Rabbitt - Warning Sign
TTITLE4=Mac Davis - It's Hard To Be Humble
TTITLE5=Rosanne Cash - Second To No One
TTITLE6=John Conlee - Common Man
TTITLE7=Conway Twitty - Rest Your Love On Me
TTITLE8=Charly McClain - Surround Me With Love
TTITLE9=Ronnie Milsap - It Was Almost Like A Song
TTITLE10=Hank Williams, Jr. - I'm For Love
TTITLE11=T. Graham Brown - I Wish That I Could Hurt That Way 
TTITLE12=Willie Nelson - Let It Be Me (Je T'appartiens)
TTITLE13=Marie Osmond and Paul Davis - You're Still New To Me
TTITLE14=The Everly Brothers - Bye Bye Love
TTITLE15=Ricky Skaggs - You Make Me Feel Like A Man
TTITLE16=Crystal Gayle - Our Love Is On The Faultline
TTITLE17=Gary Morris - Don't Look Back
TTITLE18=Kenny Rogers - Love Or Something Like It
TTITLE19=Deborah Allen - I've Been Wrong Before
TTITLE20=The Oak Ridge Boys - Sail Away
EXTD=
EXTT0=
EXTT1=
EXTT2=
EXTT3=
EXTT4=
EXTT5=
EXTT6=
EXTT7=
EXTT8=
EXTT9=
EXTT10=
EXTT11=
EXTT12=
EXTT13=
EXTT14=
EXTT15=
EXTT16=
EXTT17=
EXTT18=
EXTT19=
EXTT20=
PLAYORDER=
